<?xml version="1.0" standalone="no"?>
<!DOCTYPE svg PUBLIC "-//W3C//DTD SVG 20010904//EN"
 "http://www.w3.org/TR/2001/REC-SVG-20010904/DTD/svg10.dtd">
<svg version="1.0" xmlns="http://www.w3.org/2000/svg"
 width="512.000000pt" height="512.000000pt" viewBox="0 0 512.000000 512.000000"
 preserveAspectRatio="xMidYMid meet">
<metadata>
Created by potrace 1.14, written by Peter Selinger 2001-2017
</metadata>
<g transform="translate(0.000000,512.000000) scale(0.100000,-0.100000)"
fill="#000000" stroke="none">
<path d="M415 5110 c-183 -38 -330 -170 -391 -350 -18 -53 -19 -134 -19 -2200
0 -2066 1 -2147 19 -2200 52 -154 168 -274 322 -332 l59 -23 2155 0 2155 0 59
23 c154 58 270 178 322 332 18 53 19 134 19 2200 0 2066 -1 2147 -19 2200 -52
154 -168 274 -322 332 l-59 23 -2130 1 c-1172 1 -2148 -2 -2170 -6z m1593
-1718 l452 -427 0 -328 c0 -191 -4 -327 -9 -325 -5 2 -196 180 -425 396 -228
215 -418 392 -421 392 -3 0 -5 -407 -5 -905 l0 -905 -275 0 -275 0 0 1265 0
1265 253 0 252 -1 453 -427z m2072 -837 l0 -1265 -280 0 -280 0 -2 905 -3 905
-406 -382 c-223 -211 -413 -389 -422 -397 -16 -12 -17 10 -17 317 l0 331 453
425 452 425 253 1 252 0 0 -1265z"/>
</g>
</svg>
