<?xml version="1.0" standalone="no"?>
<!DOCTYPE svg PUBLIC "-//W3C//DTD SVG 20010904//EN"
 "http://www.w3.org/TR/2001/REC-SVG-20010904/DTD/svg10.dtd">
<svg version="1.0" xmlns="http://www.w3.org/2000/svg"
 width="512.000000pt" height="512.000000pt" viewBox="0 0 512.000000 512.000000"
 preserveAspectRatio="xMidYMid meet">
<metadata>
Created by potrace 1.14, written by Peter Selinger 2001-2017
</metadata>
<g transform="translate(0.000000,512.000000) scale(0.100000,-0.100000)"
fill="#000000" stroke="none">
<path d="M393 5106 c-184 -45 -342 -208 -382 -394 -16 -75 -16 -4229 0 -4304
41 -191 206 -357 397 -397 75 -16 4229 -16 4304 0 191 40 356 206 397 397 16
75 16 4229 0 4304 -41 191 -206 357 -397 397 -81 17 -4248 14 -4319 -3z m1609
-1709 l447 -422 1 -335 0 -335 -77 76 c-145 141 -761 719 -767 719 -3 0 -6
-407 -6 -905 l0 -905 -275 0 -275 0 0 1265 0 1265 253 -1 252 0 447 -422z
m2078 -842 l0 -1265 -277 2 -278 3 -5 903 -5 903 -396 -373 c-218 -205 -408
-384 -423 -397 l-26 -24 0 331 0 331 453 425 452 425 253 1 252 0 0 -1265z"/>
</g>
</svg>
